<svg width="24" height="24" viewBox="0 0 24 24" fill="none" xmlns="http://www.w3.org/2000/svg">
<path d="M4 8V6C4 4.89543 4.89543 4 6 4H18C19.1046 4 20 4.89543 20 6V8M4 8V16M4 8H2M20 8V16M20 8H22M4 16V18C4 19.1046 4.89543 20 6 20H18C19.1046 20 20 19.1046 20 18V16M4 16H2M20 16H22" stroke="currentColor" stroke-width="2" stroke-linecap="round"/>
<circle cx="12" cy="8" r="1" fill="currentColor"/>
<circle cx="12" cy="12" r="1" fill="currentColor"/>
<circle cx="12" cy="16" r="1" fill="currentColor"/>
</svg>
